<?xml version="1.0"?>
<svg xmlns="http://www.w3.org/2000/svg" viewBox="100 122 1020 240" width="1020" height="240">
<defs>
  <linearGradient id="tile" x1="0%" y1="0%" x2="100%" y2="100%">
    <stop offset="0%" stop-color="#5B8DFF"></stop><stop offset="55%" stop-color="#3B5CF0"></stop><stop offset="100%" stop-color="#1E4FD4"></stop>
  </linearGradient>
  <linearGradient id="badgegrad" x1="0%" y1="0%" x2="100%" y2="100%">
    <stop offset="0%" stop-color="#5B8DFF"></stop><stop offset="55%" stop-color="#3B5CF0"></stop><stop offset="100%" stop-color="#8F3BF0"></stop>
  </linearGradient>
  <filter id="tshadow" x="-30%" y="-30%" width="160%" height="160%">
    <feDropShadow dx="0" dy="9" stdDeviation="14" flood-color="#1E37B8" flood-opacity="0.55"></feDropShadow>
  </filter>
</defs>


<rect x="130" y="136" width="188" height="188" rx="44" fill="url(#tile)" filter="url(#tshadow)"></rect>
<rect x="130" y="136" width="188" height="188" rx="44" fill="none" stroke="#FFFFFF" stroke-opacity="0.18" stroke-width="1.5"></rect>
<g transform="translate(224,227.62626262626262) scale(0.9494949494949495)">

<polygon points="-58,-18 -38,-33 -38,52 -58,62" fill="#FFFFFF" opacity="0.55"></polygon>
<polygon points="-38,-33 -12,-33 -12,52 -38,52" fill="#FFFFFF" opacity="0.82"></polygon>
<polygon points="-58,-18 -38,-33 -12,-33 -32,-18" fill="#FFFFFF"></polygon>
<polygon points="-38,-33 -25,-47 0,-47 -12,-33" fill="#FFFFFF" opacity="0.92"></polygon>
<polygon points="-32,-18 -12,-33 0,-47 -20,-33" fill="#FFFFFF" opacity="0.55"></polygon>
<polygon points="-12,10 12,5 12,24 -12,29" fill="#FFFFFF"></polygon>
<polygon points="-12,10 12,5 12,24 -12,29" fill="#FFFFFF" opacity="0.4"></polygon>
<polygon points="38,-33 58,-18 58,62 38,52" fill="#FFFFFF" opacity="0.55"></polygon>
<polygon points="12,-33 38,-33 38,52 12,52" fill="#FFFFFF" opacity="0.82"></polygon>
<polygon points="38,-33 58,-18 32,-18 12,-33" fill="#FFFFFF"></polygon>
<polygon points="12,-33 38,-33 25,-47 0,-47" fill="#FFFFFF" opacity="0.92"></polygon>
<polygon points="38,-33 58,-18 45,-33 25,-47" fill="#FFFFFF" opacity="0.55"></polygon>

<rect x="-32" y="-13" width="11" height="11" fill="#3B5CF0" rx="1.5"></rect>
<rect x="-32" y="15" width="11" height="11" fill="#3B5CF0" rx="1.5"></rect>
<rect x="21" y="-13" width="11" height="11" fill="#3B5CF0" rx="1.5"></rect>
<rect x="21" y="15" width="11" height="11" fill="#3B5CF0" rx="1.5"></rect>
</g>
<path d="M367.69 236L385.29 236L385.29 205.67L415.41 205.67L415.41 236L433.01 236L433.01 161.05L415.41 161.05L415.41 191.28L385.29 191.28L385.29 161.05L367.69 161.05ZM439.52 236L457.02 236L457.02 179.79L439.52 179.79ZM448.32 173.06C453.29 173.06 457.43 169.34 457.43 164.68C457.43 160.02 453.29 156.29 448.32 156.29C443.36 156.29 439.32 160.02 439.32 164.68C439.32 169.34 443.36 173.06 448.32 173.06ZM527.09 161.05L509.49 161.05L509.49 205.05L508.87 205.05L478.75 161.05L463.53 161.05L463.53 236L481.13 236L481.13 192.01L481.65 192.01L512.08 236L527.09 236ZM559.79 237.04C574.39 237.04 584.02 230.00 586.09 219.02L569.83 219.02C568.39 222.34 564.87 224.41 560.10 224.41C553.07 224.41 548.61 219.75 548.61 212.50L548.61 212.19L586.29 212.19L586.29 207.74C586.29 189.11 574.91 179.07 559.17 179.07C542.30 179.07 531.43 190.76 531.43 208.15C531.43 226.06 542.20 237.04 559.79 237.04ZM548.61 201.94C548.87 196.09 553.38 191.70 559.59 191.70C565.59 191.70 569.94 195.94 570.04 201.94ZM622.93 197.18L639.18 197.18C638.46 186.00 629.24 179.07 614.13 179.07C598.91 179.07 589.39 185.69 589.49 196.87C589.39 205.46 594.98 211.05 606.06 213.12L615.68 214.88C620.55 215.92 622.72 217.47 622.83 219.96C622.72 223.06 619.51 224.92 614.75 224.92C609.58 224.92 606.06 222.75 605.44 218.71L588.05 218.71C589.18 229.89 598.60 237.04 614.65 237.04C629.87 237.04 640.42 229.58 640.53 218.09C640.42 209.91 635.04 205.05 623.86 202.88L613.20 200.80C608.33 199.87 606.68 198.11 606.78 195.94C606.68 193.04 610.09 191.07 614.44 191.07C619.10 191.07 622.41 193.46 622.93 197.18ZM675.71 179.79L665.47 179.79L665.47 166.33L648.08 166.33L648.08 179.79L640.52 179.79L640.52 192.63L648.08 192.63L648.08 220.37C647.97 231.76 655.43 236.83 667.74 236.83C671.88 236.83 674.78 236.41 676.44 236.21L676.44 222.85C674.47 222.96 671.68 223.16 670.23 223.06C667.23 222.96 665.47 221.92 665.47 218.40L665.47 192.63L675.71 192.63Z" fill="#FFFFFF"></path>
<path d="M377.26 300L385.47 300L392.05 277.79L392.35 277.79L398.92 300L407.09 300L417.55 263.94L408.18 263.94L402.61 287.90L402.36 287.90L396.03 263.94L388.31 263.94L382.04 287.85L381.74 287.85L376.21 263.94L366.85 263.94ZM456.99 281.97C456.99 270.07 449.52 263.44 439.86 263.44C430.15 263.44 422.73 270.07 422.73 281.97C422.73 293.82 430.15 300.50 439.86 300.50C449.52 300.50 456.99 293.87 456.99 281.97ZM448.33 281.97C448.33 289.14 445.14 293.03 439.86 293.03C434.58 293.03 431.39 289.14 431.39 281.97C431.39 274.80 434.58 270.91 439.86 270.91C445.14 270.91 448.33 274.80 448.33 281.97ZM464.06 300L472.53 300L472.53 287.60L477.26 287.60L483.88 300L493.20 300L485.68 286.20C489.64 284.41 491.90 280.85 491.90 275.89C491.90 268.52 486.92 263.94 478.80 263.94L464.06 263.94ZM472.53 280.83L472.53 270.81L477.01 270.81C481.00 270.81 483.14 272.51 483.14 275.89C483.14 279.28 481.00 280.83 477.01 280.83ZM498.72 300L507.19 300L507.19 290.14L510.78 285.71L519.89 300L530.05 300L516.95 280.03L529.85 263.94L519.79 263.94L507.69 279.33L507.19 279.33L507.19 263.94L498.72 263.94ZM535.28 300L543.74 300L543.74 288.69L549.77 288.69C558.04 288.69 563.12 283.81 563.12 276.34C563.12 269.02 558.14 263.94 550.02 263.94L535.28 263.94ZM543.74 281.97L543.74 270.81L548.23 270.81C552.21 270.81 554.35 272.96 554.35 276.34C554.35 279.73 552.21 281.97 548.23 281.97ZM569.44 300L593.05 300L593.05 293.08L577.91 293.08L577.91 263.94L569.44 263.94ZM606.99 300L609.43 292.28L621.98 292.28L624.42 300L633.54 300L621.34 263.94L610.08 263.94L597.83 300ZM611.48 285.81L615.56 272.86L615.86 272.86L619.94 285.81ZM663.37 276.94L671.94 276.94C671.04 268.32 664.66 263.44 656.00 263.44C646.39 263.44 638.97 270.07 638.97 281.97C638.97 293.82 646.24 300.50 656.00 300.50C665.76 300.50 671.24 293.87 671.94 287.45L663.37 287.40C662.72 290.94 660.03 293.03 656.15 293.03C650.97 293.03 647.63 289.24 647.63 281.97C647.63 274.95 650.87 270.91 656.20 270.91C660.23 270.91 662.87 273.25 663.37 276.94ZM678.91 300L703.91 300L703.91 293.08L687.37 293.08L687.37 285.41L702.56 285.41L702.56 278.48L687.37 278.48L687.37 270.86L703.86 270.86L703.86 263.94L678.91 263.94ZM724.77 300L733.24 300L733.24 288.69L739.27 288.69C747.53 288.69 752.61 283.81 752.61 276.34C752.61 269.02 747.63 263.94 739.52 263.94L724.77 263.94ZM733.24 281.97L733.24 270.81L737.72 270.81C741.71 270.81 743.85 272.96 743.85 276.34C743.85 279.73 741.71 281.97 737.72 281.97ZM758.94 300L782.54 300L782.54 293.08L767.40 293.08L767.40 263.94L758.94 263.94ZM796.49 300L798.93 292.28L811.48 292.28L813.92 300L823.03 300L810.83 263.94L799.58 263.94L787.32 300ZM800.97 285.81L805.05 272.86L805.35 272.86L809.44 285.81ZM827.66 270.86L838.62 270.86L838.62 300L847.04 300L847.04 270.86L857.99 270.86L857.99 263.94L827.66 263.94ZM864.27 300L872.73 300L872.73 285.41L887.13 285.41L887.13 278.48L872.73 278.48L872.73 270.86L888.72 270.86L888.72 263.94L864.27 263.94ZM928.96 281.97C928.96 270.07 921.49 263.44 911.83 263.44C902.12 263.44 894.70 270.07 894.70 281.97C894.70 293.82 902.12 300.50 911.83 300.50C921.49 300.50 928.96 293.87 928.96 281.97ZM920.30 281.97C920.30 289.14 917.11 293.03 911.83 293.03C906.55 293.03 903.36 289.14 903.36 281.97C903.36 274.80 906.55 270.91 911.83 270.91C917.11 270.91 920.30 274.80 920.30 281.97ZM936.03 300L944.50 300L944.50 287.60L949.23 287.60L955.85 300L965.17 300L957.65 286.20C961.61 284.41 963.87 280.85 963.87 275.89C963.87 268.52 958.89 263.94 950.77 263.94L936.03 263.94ZM944.50 280.83L944.50 270.81L948.98 270.81C952.97 270.81 955.11 272.51 955.11 275.89C955.11 279.28 952.97 280.83 948.98 280.83ZM970.69 263.94L970.69 300L978.96 300L978.96 277.49L979.26 277.49L988.03 299.80L993.41 299.80L1002.17 277.59L1002.47 277.59L1002.47 300L1010.74 300L1010.74 263.94L1000.23 263.94L990.92 286.65L990.52 286.65L981.20 263.94Z" fill="#ffffff" fill-opacity=".62"></path>
</svg>