<?xml version="1.0"?>
<svg xmlns="http://www.w3.org/2000/svg" viewBox="100 122 1020 240" width="1020" height="240">
<defs>
  <linearGradient id="tile" x1="0%" y1="0%" x2="100%" y2="100%">
    <stop offset="0%" stop-color="#9B7BFF"></stop><stop offset="55%" stop-color="#6E3BF0"></stop><stop offset="100%" stop-color="#4B1ECF"></stop>
  </linearGradient>
  <linearGradient id="badgegrad" x1="0%" y1="0%" x2="100%" y2="100%">
    <stop offset="0%" stop-color="#5B8DFF"></stop><stop offset="55%" stop-color="#3B5CF0"></stop><stop offset="100%" stop-color="#8F3BF0"></stop>
  </linearGradient>
  <filter id="tshadow" x="-30%" y="-30%" width="160%" height="160%">
    <feDropShadow dx="0" dy="9" stdDeviation="14" flood-color="#1E37B8" flood-opacity="0.32"></feDropShadow>
  </filter>
</defs>


<rect x="130" y="136" width="188" height="188" rx="44" fill="url(#tile)" filter="url(#tshadow)"></rect>
<rect x="130" y="136" width="188" height="188" rx="44" fill="none" stroke="#FFFFFF" stroke-opacity="0.18" stroke-width="1.5"></rect>
<g transform="translate(224,227.62626262626262) scale(0.9494949494949495)">

<polygon points="-58,-18 -38,-33 -38,52 -58,62" fill="#FFFFFF" opacity="0.55"></polygon>
<polygon points="-38,-33 -12,-33 -12,52 -38,52" fill="#FFFFFF" opacity="0.82"></polygon>
<polygon points="-58,-18 -38,-33 -12,-33 -32,-18" fill="#FFFFFF"></polygon>
<polygon points="-38,-33 -25,-47 0,-47 -12,-33" fill="#FFFFFF" opacity="0.92"></polygon>
<polygon points="-32,-18 -12,-33 0,-47 -20,-33" fill="#FFFFFF" opacity="0.55"></polygon>
<polygon points="-12,10 12,5 12,24 -12,29" fill="#FFFFFF"></polygon>
<polygon points="-12,10 12,5 12,24 -12,29" fill="#FFFFFF" opacity="0.4"></polygon>
<polygon points="38,-33 58,-18 58,62 38,52" fill="#FFFFFF" opacity="0.55"></polygon>
<polygon points="12,-33 38,-33 38,52 12,52" fill="#FFFFFF" opacity="0.82"></polygon>
<polygon points="38,-33 58,-18 32,-18 12,-33" fill="#FFFFFF"></polygon>
<polygon points="12,-33 38,-33 25,-47 0,-47" fill="#FFFFFF" opacity="0.92"></polygon>
<polygon points="38,-33 58,-18 45,-33 25,-47" fill="#FFFFFF" opacity="0.55"></polygon>

<rect x="-32" y="-13" width="11" height="11" fill="#6E3BF0" rx="1.5"></rect>
<rect x="-32" y="15" width="11" height="11" fill="#6E3BF0" rx="1.5"></rect>
<rect x="21" y="-13" width="11" height="11" fill="#6E3BF0" rx="1.5"></rect>
<rect x="21" y="15" width="11" height="11" fill="#6E3BF0" rx="1.5"></rect>
</g>
<path d="M367.69 236L385.29 236L385.29 205.67L415.41 205.67L415.41 236L433.01 236L433.01 161.05L415.41 161.05L415.41 191.28L385.29 191.28L385.29 161.05L367.69 161.05ZM439.52 236L457.02 236L457.02 179.79L439.52 179.79ZM448.32 173.06C453.29 173.06 457.43 169.34 457.43 164.68C457.43 160.02 453.29 156.29 448.32 156.29C443.36 156.29 439.32 160.02 439.32 164.68C439.32 169.34 443.36 173.06 448.32 173.06ZM527.09 161.05L509.49 161.05L509.49 205.05L508.87 205.05L478.75 161.05L463.53 161.05L463.53 236L481.13 236L481.13 192.01L481.65 192.01L512.08 236L527.09 236ZM559.79 237.04C574.39 237.04 584.02 230.00 586.09 219.02L569.83 219.02C568.39 222.34 564.87 224.41 560.10 224.41C553.07 224.41 548.61 219.75 548.61 212.50L548.61 212.19L586.29 212.19L586.29 207.74C586.29 189.11 574.91 179.07 559.17 179.07C542.30 179.07 531.43 190.76 531.43 208.15C531.43 226.06 542.20 237.04 559.79 237.04ZM548.61 201.94C548.87 196.09 553.38 191.70 559.59 191.70C565.59 191.70 569.94 195.94 570.04 201.94ZM622.93 197.18L639.18 197.18C638.46 186.00 629.24 179.07 614.13 179.07C598.91 179.07 589.39 185.69 589.49 196.87C589.39 205.46 594.98 211.05 606.06 213.12L615.68 214.88C620.55 215.92 622.72 217.47 622.83 219.96C622.72 223.06 619.51 224.92 614.75 224.92C609.58 224.92 606.06 222.75 605.44 218.71L588.05 218.71C589.18 229.89 598.60 237.04 614.65 237.04C629.87 237.04 640.42 229.58 640.53 218.09C640.42 209.91 635.04 205.05 623.86 202.88L613.20 200.80C608.33 199.87 606.68 198.11 606.78 195.94C606.68 193.04 610.09 191.07 614.44 191.07C619.10 191.07 622.41 193.46 622.93 197.18ZM675.71 179.79L665.47 179.79L665.47 166.33L648.08 166.33L648.08 179.79L640.52 179.79L640.52 192.63L648.08 192.63L648.08 220.37C647.97 231.76 655.43 236.83 667.74 236.83C671.88 236.83 674.78 236.41 676.44 236.21L676.44 222.85C674.47 222.96 671.68 223.16 670.23 223.06C667.23 222.96 665.47 221.92 665.47 218.40L665.47 192.63L675.71 192.63Z" fill="#0C1020"></path>
<g>
  <rect x="716" y="152" width="304" height="92" rx="46" fill="#ECEEFA" stroke="url(#badgegrad)" stroke-width="3"></rect>
  <g transform="translate(748,170) scale(2.3333333333333335)" fill="none" stroke="#1E37B8" stroke-width="1.7" stroke-linecap="round" stroke-linejoin="round">
    <path d="M12 2l8 3v6c0 5-3.5 8.5-8 11-4.5-2.5-8-6-8-11V5l8-3z"></path>
    <path d="M9 12l2 2 4-4"></path>
  </g>
  <path d="M835.21 214.33L837.41 207.37L848.73 207.37L850.93 214.33L859.15 214.33L848.15 181.81L837.99 181.81L826.94 214.33ZM839.25 201.53L842.94 189.85L843.21 189.85L846.89 201.53ZM876.36 214.33C886.28 214.33 892.39 208.22 892.39 198.07C892.39 187.92 886.28 181.81 876.36 181.81L864.45 181.81L864.45 214.33ZM872.09 207.77L872.09 188.32L876.00 188.32C881.66 188.32 884.71 191.02 884.71 198.07C884.71 205.12 881.66 207.77 876.09 207.77ZM898.77 181.81L898.77 214.33L906.23 214.33L906.23 194.03L906.50 194.03L914.40 214.15L919.25 214.15L927.16 194.12L927.43 194.12L927.43 214.33L934.89 214.33L934.89 181.81L925.41 181.81L917.01 202.29L916.65 202.29L908.25 181.81ZM949.31 181.81L941.67 181.81L941.67 214.33L949.31 214.33ZM983.67 181.81L976.03 181.81L976.03 200.90L975.76 200.90L962.69 181.81L956.09 181.81L956.09 214.33L963.72 214.33L963.72 195.24L963.95 195.24L977.15 214.33L983.67 214.33Z" fill="#1E37B8"></path>
</g>
<path d="M392.89 262.30L369.14 262.30L369.14 268.13L385.87 268.13C385.80 270.79 385.60 273.98 384.88 278.04L391.90 278.68C392.89 273.11 392.89 268.57 392.89 265.34ZM381.64 273.01L374.52 273.01L374.52 281.67C371.63 281.72 368.91 281.72 366.50 281.72L367.10 287.35C374.96 287.35 385.57 287.20 395.04 285.41L394.69 280.28C390.53 280.88 386.05 281.22 381.64 281.42ZM404.30 259.06L396.93 259.06L396.93 293.23L404.30 293.23L404.30 278.63L409.48 278.63L409.48 272.71L404.30 272.71ZM405.69 298.31L380.29 298.31L380.29 290.19L373.07 290.19L373.07 304.03L405.69 304.03ZM451.76 259.06L444.64 259.06L444.64 304.88L451.76 304.88ZM437.52 262.80L415.70 262.80L415.70 268.52L430.20 268.52L430.20 275.20L415.70 275.20L415.70 294.32L419.89 294.32C428.40 294.32 435.13 294.02 442.35 292.73L441.75 286.95C435.50 288.00 429.87 288.35 423.12 288.40L423.12 280.83L437.52 280.83ZM476.76 271.01L476.76 269.22L485.63 269.22L485.63 263.39L460.18 263.39L460.18 269.22L469.49 269.22L469.49 271.01C469.49 278.48 466.20 286.90 458.28 290.59L462.42 296.26C467.67 293.82 471.26 288.99 473.28 283.22C475.27 288.42 478.70 292.83 483.73 295.07L487.72 289.44C479.90 285.91 476.71 277.89 476.76 271.01ZM495.69 259.06L488.52 259.06L488.52 304.78L495.69 304.78L495.69 282.12L502.16 282.12L502.16 276.19L495.69 276.19ZM556.05 260.65L523.72 260.65L523.72 266.33L548.92 266.33L548.87 269.27L522.38 269.72L523.28 275.55L548.53 274.55C548.33 276.14 548.05 277.81 547.68 279.63L554.70 280.23C556.00 274.20 556.00 269.77 556.05 265.14ZM560.58 282.27L541.30 282.27L541.30 276.89L534.13 276.89L534.13 282.27L519.14 282.27L519.14 287.85L560.58 287.85ZM556.69 298.36L530.95 298.36L530.95 290.39L523.77 290.39L523.77 304.08L556.69 304.08ZM589.46 272.76L582.29 272.76L582.29 277.34L565.11 277.34L565.11 282.97L606.80 282.97L606.80 277.34L589.46 277.34ZM589.51 260.21L589.51 259.51L582.19 259.51L582.19 260.21C582.19 264.74 578.21 269.07 567.00 270.07L569.49 275.55C577.49 274.62 582.94 271.98 585.83 268.03C588.72 271.98 594.20 274.62 602.16 275.55L604.60 270.07C593.45 269.07 589.51 264.74 589.51 260.21ZM601.82 284.86L569.84 284.86L569.84 290.24L594.69 290.24L594.69 292.08L569.84 292.08L569.84 304.53L602.91 304.53L602.91 299.15L576.91 299.15L576.91 297.06L601.82 297.06ZM635.73 259.26L628.61 259.26L628.61 304.48L635.73 304.48ZM666.36 300L668.80 292.28L681.35 292.28L683.79 300L692.90 300L680.70 263.94L669.45 263.94L657.19 300ZM670.84 285.81L674.92 272.86L675.22 272.86L679.31 285.81ZM711.98 300C722.98 300 729.76 293.23 729.76 281.97C729.76 270.71 722.98 263.94 711.98 263.94L698.78 263.94L698.78 300ZM707.25 292.73L707.25 271.16L711.58 271.16C717.85 271.16 721.24 274.15 721.24 281.97C721.24 289.79 717.85 292.73 711.68 292.73ZM736.83 263.94L736.83 300L745.10 300L745.10 277.49L745.39 277.49L754.16 299.80L759.54 299.80L768.30 277.59L768.60 277.59L768.60 300L776.87 300L776.87 263.94L766.36 263.94L757.05 286.65L756.65 286.65L747.34 263.94ZM792.86 263.94L784.39 263.94L784.39 300L792.86 300ZM830.95 263.94L822.49 263.94L822.49 285.11L822.19 285.11L807.70 263.94L800.37 263.94L800.37 300L808.84 300L808.84 278.83L809.09 278.83L823.73 300L830.95 300ZM875.87 276.94L884.44 276.94C883.54 268.32 877.17 263.44 868.50 263.44C858.89 263.44 851.47 270.07 851.47 281.97C851.47 293.82 858.74 300.50 868.50 300.50C878.27 300.50 883.74 293.87 884.44 287.45L875.87 287.40C875.23 290.94 872.54 293.03 868.65 293.03C863.47 293.03 860.14 289.24 860.14 281.97C860.14 274.95 863.37 270.91 868.70 270.91C872.74 270.91 875.38 273.25 875.87 276.94ZM925.23 281.97C925.23 270.07 917.76 263.44 908.10 263.44C898.38 263.44 890.96 270.07 890.96 281.97C890.96 293.82 898.38 300.50 908.10 300.50C917.76 300.50 925.23 293.87 925.23 281.97ZM916.56 281.97C916.56 289.14 913.38 293.03 908.10 293.03C902.82 293.03 899.63 289.14 899.63 281.97C899.63 274.80 902.82 270.91 908.10 270.91C913.38 270.91 916.56 274.80 916.56 281.97ZM962.88 263.94L954.41 263.94L954.41 285.11L954.11 285.11L939.62 263.94L932.30 263.94L932.30 300L940.77 300L940.77 278.83L941.02 278.83L955.66 300L962.88 300ZM989.87 274.65L998.04 274.65C997.94 267.98 992.61 263.44 984.29 263.44C976.13 263.44 970.20 267.93 970.25 274.60C970.25 280.03 974.03 283.12 980.26 284.56L984.04 285.46C988.03 286.35 989.87 287.45 989.92 289.54C989.87 291.83 987.73 293.43 984.14 293.43C980.26 293.43 977.67 291.63 977.47 288.15L969.30 288.15C969.45 296.41 975.28 300.50 984.24 300.50C993.21 300.50 998.49 296.36 998.54 289.54C998.49 283.76 994.45 280.33 987.53 278.78L984.39 278.04C981.16 277.34 978.96 276.24 979.01 274.00C979.06 271.96 980.81 270.47 984.24 270.47C987.73 270.47 989.67 272.01 989.87 274.65ZM1038.78 281.97C1038.78 270.07 1031.31 263.44 1021.64 263.44C1011.93 263.44 1004.51 270.07 1004.51 281.97C1004.51 293.82 1011.93 300.50 1021.64 300.50C1031.31 300.50 1038.78 293.87 1038.78 281.97ZM1030.11 281.97C1030.11 289.14 1026.92 293.03 1021.64 293.03C1016.37 293.03 1013.18 289.14 1013.18 281.97C1013.18 274.80 1016.37 270.91 1021.64 270.91C1026.92 270.91 1030.11 274.80 1030.11 281.97ZM1045.85 300L1069.46 300L1069.46 293.08L1054.31 293.08L1054.31 263.94L1045.85 263.94ZM1075.93 300L1100.93 300L1100.93 293.08L1084.39 293.08L1084.39 285.41L1099.59 285.41L1099.59 278.48L1084.39 278.48L1084.39 270.86L1100.88 270.86L1100.88 263.94L1075.93 263.94Z" fill="#5A6072"></path>
</svg>